{"title":"Ice Road Terror (2011) TVRip XviD-HORRORSPOKE","uid":6669423,"size":801817949,"categoryP":"video","categoryS":"movies","magnet":"?xt=urn:btih:83f88e0fe7dfc49c4d72e11fb6917f428714e4fd&amp;dn=Ice+Road+Terror+%282011%29+TVRip+XviD-HORRORSPOKE&amp;tr=udp%3A%2F%2Ftracker.openbittorrent.com%3A80&amp;tr=udp%3A%2F%2Fopen.demonii.com%3A1337&amp;tr=udp%3A%2F%2Ftracker.coppersurfer.tk%3A6969&amp;tr=udp%3A%2F%2Fexodus.desync.com%3A6969","seeders":0,"leechers":0,"uploader":"Horrorspoke","files":-1,"time":1315819243,"description":"PLOT:\n\nThe treacherous Alaskan ice road becomes the setting for a deadly pursuit inthis suspenseful thriller. Two truckers are preparing to traverse a dangerous path across frozen rivers to deliver equipment to a remote diamond mine. Unbeknownst to them, blasting at the mine has awakened a long-dormant prehistoric creature. Upon arrival at the mine they encounter unbelievable carnage, leaving them stranded in the wilderness with a hungry beast on their trail. Can they escape the terror of the ice road?\n\nTECH SPECS:\n\nSource                           : JOBIWAN (Thanks)\nFormat                           : AVI\nFormat/Info                      : Audio Video Interleave\nFile size                        : 765 MiB\nDuration                         : 1h 25mn\nOverall bit rate                 : 1 244 Kbps\nWriting application              : VirtualDubMod 1.5.10.2 (build 2542/release)\nWriting library                  : VirtualDubMod build 2542/release\n\nVideo\nID                               : 0\nFormat                           : MPEG-4 Visual\nFormat profile                   : Advanced Simple@L5\nFormat settings, BVOP            : 1\nFormat settings, QPel            : No\nFormat settings, GMC             : No warppoints\nFormat settings, Matrix          : Default (H.263)\nMuxing mode                      : Packed bitstream\nCodec ID                         : XVID\nCodec ID/Hint                    : XviD\nDuration                         : 1h 25mn\nBit rate                         : 979 Kbps\nWidth                            : 640 pixels\nHeight                           : 360 pixels\nDisplay aspect ratio             : 16:9\nFrame rate                       : 29.970 fps\nColor space                      : YUV\nChroma subsampling               : 4:2:0\nBit depth                        : 8 bits\nScan type                        : Progressive\nCompression mode                 : Lossy\nBits/(Pixel*Frame)               : 0.142\nStream size                      : 602 MiB (79%)\nWriting library                  : XviD 62\n\nAudio\nID                               : 1\nFormat                           : AC-3\nFormat/Info                      : Audio Coding 3\nMode extension                   : CM (complete main)\nCodec ID                         : 2000\nDuration                         : 1h 25mn\nBit rate mode                    : Constant\nBit rate                         : 256 Kbps\nChannel(s)                       : 2 channels\nChannel positions                : Front: L R\nSampling rate                    : 48.0 KHz\nBit depth                        : 16 bits\nCompression mode                 : Lossy\nStream size                      : 157 MiB (21%)\nAlignment                        : Split accross interleaves\nInterleave, duration             : 64 ms (1.92 video frames)\nInterleave, preload duration     : 500 ms\n\nSCREENS:\n &lt;a href=&quot;\nhttp://imghunt.org/images/01408857725352376881.png&quot; rel=&quot;nofollow&quot; target=&quot;_NEW&quot;&gt;\nhttp://imghunt.org/images/01408857725352376881.png&lt;/a&gt; &lt;a href=&quot;\nhttp://imghunt.org/images/49906042452766444862.png&quot; rel=&quot;nofollow&quot; target=&quot;_NEW&quot;&gt;\nhttp://imghunt.org/images/49906042452766444862.png&lt;/a&gt; &lt;a href=&quot;\nhttp://imghunt.org/images/38938648799542779065.png&quot; rel=&quot;nofollow&quot; target=&quot;_NEW&quot;&gt;\nhttp://imghunt.org/images/38938648799542779065.png&lt;/a&gt;\n\nSEED AND ENJOY!!!","torrent":{"xt":"urn:btih:83f88e0fe7dfc49c4d72e11fb6917f428714e4fd","amp;dn":"Ice+Road+Terror+%282011%29+TVRip+XviD-HORRORSPOKE","amp;tr":["udp%3A%2F%2Ftracker.openbittorrent.com%3A80","udp%3A%2F%2Fopen.demonii.com%3A1337","udp%3A%2F%2Ftracker.coppersurfer.tk%3A6969","udp%3A%2F%2Fexodus.desync.com%3A6969"],"infoHash":"83f88e0fe7dfc49c4d72e11fb6917f428714e4fd","infoHashBuffer":{"type":"Buffer","data":[131,248,142,15,231,223,196,156,77,114,225,31,182,145,127,66,135,20,228,253]},"announce":[],"urlList":[]}}